<svg xmlns="http://www.w3.org/2000/svg" viewBox="0 0 48 48"><style>.w0{fill:#1a2350}.w1{fill:#3b5bdb}.w2{fill:#6d84ec}.w3{fill:#aab3d8}@media (prefers-color-scheme:dark){.w0{fill:#eef1fd}.w1{fill:#6d84ec}.w2{fill:#aab3d8}.w3{fill:#5a68a8}}</style><path class="w0" d="M24.16 19L24.69 2.01A22 22 0 0 1 45.99 23.31L29 23.84A5 5 0 0 0 24.16 19Z"/><path class="w1" d="M29 24.16L42.19 24.57A18.2 18.2 0 0 1 24.57 42.19L24.16 29A5 5 0 0 0 29 24.16Z"/><path class="w2" d="M23.84 29L23.55 38.39A14.4 14.4 0 0 1 9.61 24.45L19 24.16A5 5 0 0 0 23.84 29Z"/><path class="w3" d="M19 23.84L13.41 23.67A10.6 10.6 0 0 1 23.67 13.41L23.84 19A5 5 0 0 0 19 23.84Z"/></svg>
